*******************************************************************************
           The Chilling (1989) Director's Cut DVDRip - RadioResearch
*******************************************************************************

-------------------------------------------------------------------------------
                              General Information
-------------------------------------------------------------------------------
Type.................: Movie



Video Format.........: AVI
Video Bitrate........: 1281
Resolution...........: 632 x 480
Color................: 8 bit
FPS..................: 23.976
Source...............: DVD 4x3
Original Format......: NTSC
Genre................: Horror
IMDb Rating..........: 3.3
Movie Information....: http://www.imdb.com/title/tt0097059/

-------------------------------------------------------------------------------
                               Post Information
-------------------------------------------------------------------------------
Posted by............: RadioResearch
Posted on............: 5/13/2013

-------------------------------------------------------------------------------
                                 Release Notes
-------------------------------------------------------------------------------
SEEDBOX SUPPORTED!!

Universal Cryogenics is doing a booming business in freezing the bodies of the 
recently dead in the hopes of defrosting them later when science has discovered 
a way to cure what ails them. Things are going well until the storage facility 
loses its power during a storm, threatening their frozen clients. To make 
matters worse, a lightning strike causes the bodies to revive as homicidal 
zombies. What has the cryogenic lab been doing to its customers to cause this 
kind of change, and can they stop?

This is a Code Red edition, so yo know the quality is there.  It is also out-
of-print, so...enjoy!

RadioResearch

General
Complete name                            : G:The Chilling (1989) Director's Cut 
DVDRip - RadioResearchThe Chilling - {RadioResearch}.avi
Format                                   : AVI
Format/Info                              : Audio Video Interleave
File size                                : 838 MiB
Duration                                 : 1h 31mn
Overall bit rate                         : 1 281 Kbps
Movie name                               : THE_CHILLING.Title2.DVDRip
Writing application                      : Lavf53.32.100
Original source form/Name                : THE_CHILLING

Video
ID                                       : 0
Format                                   : MPEG-4 Visual
Format profile                           : Advanced Simple@L5
Format settings, BVOP                    : 2
Format settings, QPel                    : No
Format settings, GMC                     : No warppoints
Format settings, Matrix                  : Default (H.263)
Muxing mode                              : Packed bitstream
Codec ID                                 : XVID
Codec ID/Hint                            : XviD
Duration                                 : 1h 31mn
Bit rate                                 : 1 079 Kbps
Width                                    : 632 pixels
Height                                   : 480 pixels
Display aspect ratio                     : 4:3
Frame rate                               : 23.976 fps
Color space                              : YUV
Chroma subsampling                       : 4:2:0
Bit depth                                : 8 bits
Scan type                                : Progressive
Compression mode                         : Lossy
Bits/(Pixel*Frame)                       : 0.148
Stream size                              : 706 MiB (84%)
Writing library                          : XviD 64

Audio
ID                                       : 1
Format                                   : AC-3
Format/Info                              : Audio Coding 3
Mode extension                           : CM (complete main)
Format settings, Endianness              : Big
Codec ID                                 : 2000
Duration                                 : 1h 31mn
Bit rate mode                            : Constant
Bit rate                                 : 192 Kbps
Channel(s)                               : 2 channels
Channel positions                        : Front: L R
Sampling rate                            : 48.0 KHz
Bit depth                                : 16 bits
Compression mode                         : Lossy
Stream size                              : 126 MiB (15%)
Alignment                                : Aligned on interleaves
Interleave, duration                     : 32 ms (0.77 video frame)

AVI FILE MD5 HASH  1402b239faec7a0d10da5387801452a8



-------------------------------------------------------------------------------
Generated with Cool NFO Creator - http://fly.to/coolbeans
-------------------------------------------------------------------------------
